<?xml version="1.0" encoding="UTF-8"?>
<svg version="1.1" xmlns="http://www.w3.org/2000/svg" width="1838" height="1792">
<path d="M0 0 C2.23828496 0.23323799 4.47760096 0.45152541 6.71777344 0.66583252 C17.23088779 1.67647089 27.711143 2.88308453 38.18652344 4.22784424 C38.96157227 4.32647766 39.73662109 4.42511108 40.53515625 4.5267334 C126.87322336 15.56858761 211.58617484 38.84224575 294.18652344 76.22784424 C295.35119141 76.7560376 296.51585937 77.28423096 297.71582031 77.82843018 C354.18376475 103.50315298 407.73182433 134.96794568 457.84814453 171.52325439 C459.42245733 172.67086892 460.99833612 173.81633792 462.57568359 174.95977783 C472.41255699 182.09195917 482.030172 189.40445254 491.40527344 197.13409424 C495.04835459 200.13383868 498.76707215 203.02756136 502.49902344 205.91534424 C507.73879384 209.98705499 512.66709871 214.30170244 517.53027344 218.82159424 C520.2362678 221.27290678 523.02630548 223.56841115 525.87402344 225.85284424 C529.95002114 229.14143329 533.66661918 232.59380477 537.31152344 236.34893799 C539.09889603 238.14003427 540.94480507 239.77952783 542.87402344 241.41534424 C547.28709978 245.20171151 551.3231927 249.33464465 555.40576172 253.46881104 C558.26327139 256.34911778 561.13193749 259.12484971 564.24902344 261.72784424 C568.36743142 265.22329975 571.917719 269.18623722 575.54296875 273.17779541 C578.93523353 276.90404971 582.41349698 280.49914435 585.99902344 284.04034424 C589.60014616 287.6055071 593.03178675 291.22558114 596.31933594 295.07940674 C598.21446824 297.2599983 600.16619672 299.38184149 602.1315918 301.49908447 C606.88976872 306.62771192 611.4238103 311.86829363 615.81152344 317.32159424 C618.02434416 320.02938801 620.28800913 322.67971917 622.57885742 325.32110596 C627.7663875 331.30287157 632.72682847 337.38768838 637.50292969 343.70440674 C639.4579543 346.28791143 641.45095226 348.83762713 643.46386719 351.37628174 C650.80630147 360.65789804 657.68121496 370.14292739 664.29199219 379.95831299 C666.58052394 383.35446154 668.93919655 386.68424074 671.37402344 389.97784424 C722.51831888 459.62340248 760.63731544 540.3949764 832.18652344 858.22784424 C832.24847397 859.51294388 832.24847397 859.51294388 832.31167603 860.82400513 C833.09067056 877.27424855 833.3894359 893.69755699 833.37402344 910.16534424 C833.37341919 911.37540131 833.37281494 912.58545837 833.37219238 913.83218384 C833.25854111 998.49752882 822.84778654 1083.34334093 749.64111328 1298.16290283 C748.1818963 1301.23759401 746.74005778 1304.32001294 745.29980469 1307.40362549 C733.34427701 1332.84070509 719.75855033 1357.21703182 705.18652344 1381.22784424 C704.62223633 1382.16177002 704.05794922 1383.0956958 703.4765625 1384.05792236 C686.52009635 1412.06409769 667.95481358 1439.03663123 647.94775391 1464.94366455 C646.42728967 1466.91558906 644.91521122 1468.89333085 643.40917969 1470.87628174 C634.62732196 1482.40513872 625.46725261 1493.63226818 616.05859375 1504.65460205 C613.30755137 1507.88113324 610.63846734 1511.15982875 607.99902344 1514.47784424 C603.29756173 1520.26752855 598.18210004 1525.64713472 593.03344727 1531.03936768 C592.38013428 1531.72418213 591.72682129 1532.40899658 591.05371094 1533.11456299 C590.47733887 1533.71486328 589.9009668 1534.31516357 589.30712891 1534.93365479 C587.50163216 1536.88694202 585.76491639 1538.87513409 584.03051758 1540.89093018 C579.82802305 1545.70947916 575.3404007 1550.21774117 570.81542969 1554.73175049 C569.93426987 1555.61386703 569.05311005 1556.49598358 568.14524841 1557.40483093 C565.82075594 1559.73017233 563.49386436 1562.05308042 561.1661377 1564.37518311 C559.75007665 1565.78929247 558.33598023 1567.20533544 556.92260742 1568.62213135 C554.18124088 1571.36971143 551.4363931 1574.1137653 548.69042969 1576.85675049 C547.8568544 1577.69235001 547.02327911 1578.52794952 546.16444397 1579.38887024 C541.86676983 1583.66956085 537.50319695 1587.80685156 532.89727783 1591.75520325 C530.32457706 1593.96981958 527.85796039 1596.28913513 525.37402344 1598.60284424 C520.75218513 1602.87303683 515.99228396 1606.91009796 511.08886719 1610.85675049 C507.79688673 1613.54616117 504.58660864 1616.3196969 501.37402344 1619.10284424 C494.48568624 1625.0438825 487.38995522 1630.67562891 480.18652344 1636.22784424 C479.53312988 1636.73428467 478.87973633 1637.2407251 478.20654297 1637.76251221 C473.22721264 1641.62081038 468.22041083 1645.44099843 463.18652344 1649.22784424 C462.53361328 1649.71913818 461.88070313 1650.21043213 461.20800781 1650.71661377 C425.58563463 1677.34389021 387.32949916 1700.22312548 348.18652344 1721.22784424 C347.27708984 1721.71752686 346.36765625 1722.20720947 345.43066406 1722.71173096 C312.54293064 1740.36008472 278.22313603 1755.09428721 243.31152344 1768.22784424 C242.08205994 1768.69211823 242.08205994 1768.69211823 240.82775879 1769.16577148 C207.08419311 1781.86992081 207.08419311 1781.86992081 194.18652344 1782.54034424 C192.51967139 1782.65885895 190.85299222 1782.77983827 189.18652344 1782.90362549 C188.13464844 1782.96417114 188.13464844 1782.96417114 187.06152344 1783.02593994 C184.96068391 1783.18487912 184.96068391 1783.18487912 182.18652344 1784.22784424 C179.29622816 1784.32567881 176.43010884 1784.36534279 173.53966522 1784.359272 C172.19209406 1784.36235095 172.19209406 1784.36235095 170.81729925 1784.36549211 C167.77918696 1784.37118795 164.74111964 1784.36970168 161.70300293 1784.36828613 C159.51385906 1784.3708683 157.32471565 1784.37388104 155.13557291 1784.37728953 C149.09794809 1784.38538045 143.06033515 1784.38715027 137.02270555 1784.387887 C130.51941641 1784.38973397 124.01613347 1784.39727957 117.5128479 1784.40402222 C102.53881702 1784.41860065 87.56478739 1784.42413444 72.59075069 1784.42871416 C65.19173259 1784.43104924 57.79271526 1784.43465183 50.39369776 1784.43840954 C25.06830054 1784.45124706 -0.25709624 1784.46196532 -25.58249664 1784.46541214 C-27.17279628 1784.46563377 -28.76309592 1784.46585556 -30.35339555 1784.46607749 C-31.94755512 1784.46629813 -33.5417147 1784.46651861 -35.13587427 1784.46673894 C-38.33407243 1784.46718149 -41.53227059 1784.46762861 -44.73046875 1784.46807861 C-45.52343805 1784.468188 -46.31640736 1784.4682974 -47.13340604 1784.4684101 C-72.83944494 1784.47203989 -98.54545562 1784.48795595 -124.25148372 1784.51126898 C-151.42598469 1784.53586872 -178.60046954 1784.54958508 -205.77498198 1784.55078006 C-208.75859293 1784.55095151 -211.74220387 1784.55116694 -214.72581482 1784.55141449 C-215.46046972 1784.55147026 -216.19512462 1784.55152603 -216.95204179 1784.55158349 C-228.77254566 1784.55273392 -240.59302056 1784.56375544 -252.41351465 1784.57830155 C-264.29763001 1784.5926729 -276.18170827 1784.59589996 -288.06582993 1784.58786157 C-294.50354703 1784.58395132 -300.94116676 1784.58490306 -307.37887192 1784.59891891 C-313.27359861 1784.61163527 -319.16815455 1784.61048006 -325.06288093 1784.5983282 C-327.19419926 1784.59636727 -329.32552959 1784.59946787 -331.45683104 1784.60817257 C-351.18720873 1784.68364645 -351.18720873 1784.68364645 -360.81347656 1781.22784424 C-363.1028365 1780.72946469 -365.39662804 1780.2505162 -367.69628906 1779.80206299 C-374.55536089 1778.35888148 -381.07986163 1776.36093024 -387.68847656 1774.04034424 C-388.90535156 1773.61600098 -390.12222656 1773.19165771 -391.37597656 1772.75445557 C-419.04202266 1762.99500488 -446.26879314 1751.70659284 -472.81347656 1739.22784424 C-473.46062622 1738.9238269 -474.10777588 1738.61980957 -474.77453613 1738.30657959 C-512.20396718 1720.68994151 -548.15590228 1700.84774837 -582.81347656 1678.22784424 C-583.81040527 1677.57783447 -584.80733398 1676.92782471 -585.83447266 1676.25811768 C-597.81911991 1668.418607 -609.58984437 1660.41105096 -620.93359375 1651.66778564 C-623.56979448 1649.64852436 -626.23448992 1647.66836461 -628.89819336 1645.68560791 C-640.45813007 1637.07202338 -651.76409567 1628.21554837 -662.72363281 1618.84893799 C-665.5892535 1616.4048109 -668.50753179 1614.0308869 -671.43847656 1611.66534424 C-676.20585659 1607.78620969 -680.75550643 1603.70838216 -685.27832031 1599.54815674 C-687.34673415 1597.65503221 -689.43753533 1595.8053272 -691.56347656 1593.97784424 C-704.76056176 1582.45605033 -717.13745602 1570.06242251 -729.50488281 1557.66680908 C-731.8628847 1555.30429781 -734.22415959 1552.94516911 -736.58737946 1550.5878849 C-738.88393895 1548.29583404 -741.17665802 1545.99994929 -743.46972656 1543.70440674 C-744.30524048 1542.87091705 -745.14075439 1542.03742737 -746.00158691 1541.17868042 C-750.25883622 1536.9044857 -754.37332558 1532.56556637 -758.29714966 1527.98228455 C-760.83750336 1525.04301141 -763.52321341 1522.24086572 -766.18847656 1519.41534424 C-770.81619967 1514.47035562 -775.21175475 1509.41557186 -779.44628906 1504.12628174 C-782.28335843 1500.65251034 -785.23253587 1497.28785656 -788.18847656 1493.91534424 C-794.32632062 1486.87703538 -800.13088453 1479.63623435 -805.81347656 1472.22784424 C-806.41562988 1471.4463501 -807.0177832 1470.66485596 -807.63818359 1469.85968018 C-812.39963185 1463.67631998 -817.12330314 1457.46543954 -821.81347656 1451.22784424 C-822.35166016 1450.51241455 -822.88984375 1449.79698486 -823.44433594 1449.05987549 C-876.89090548 1377.56731029 -919.09651678 1296.44076163 -999.01660156 933.38800049 C-999.02357997 931.62452165 -999.03062094 929.86104306 -999.03771973 928.0975647 C-999.05699316 922.49515469 -999.06189504 916.89278379 -999.06347656 911.29034424 C-999.0640657 910.3373003 -999.06465485 909.38425636 -999.06526184 908.40233231 C-999.07723328 880.98496169 -998.91157899 853.72327194 -996.0413208 826.42797852 C-995.80779319 824.17296382 -995.58960372 821.91690937 -995.37548828 819.65997314 C-989.10183175 753.84333497 -975.34861079 689.05327063 -954.81347656 626.22784424 C-954.44062531 625.08509033 -954.44062531 625.08509033 -954.0602417 623.91925049 C-947.11549544 602.68379984 -939.43784884 581.84045185 -930.81347656 561.22784424 C-930.3073584 560.01354736 -929.80124023 558.79925049 -929.27978516 557.54815674 C-913.56570406 519.96907465 -895.48637905 483.0020761 -874.52099609 448.07354736 C-872.84610611 445.2822237 -871.1867317 442.48210575 -869.52832031 439.68096924 C-852.31847778 410.81971115 -833.11437305 383.19718996 -812.62451172 356.58233643 C-811.04033544 354.52277913 -809.46211581 352.4589237 -807.88769531 350.39190674 C-799.67493366 339.62361543 -791.03407186 329.23081962 -782.25488281 318.92364502 C-780.81148041 317.22549578 -779.37466234 315.52194231 -777.93847656 313.81768799 C-772.1269641 306.94821212 -766.15349805 300.26807294 -759.97241211 293.72833252 C-756.90614194 290.48352004 -753.90534479 287.19893075 -750.95410156 283.84893799 C-744.58584056 276.75154847 -737.79784722 270.06304695 -731.04760742 263.331604 C-728.74900447 261.03837675 -726.45581626 258.73983184 -724.16308594 256.44073486 C-722.68098469 254.95929423 -721.19857336 253.47816374 -719.71582031 251.99737549 C-719.04163559 251.32116653 -718.36745087 250.64495758 -717.6728363 249.94825745 C-713.77403576 246.06833349 -709.77265274 242.36466198 -705.60189819 238.77815247 C-702.83215975 236.37718156 -700.17389667 233.86031595 -697.50097656 231.35284424 C-692.62762107 226.814359 -687.61043679 222.53435626 -682.41503906 218.36456299 C-679.86360927 216.2690193 -677.43020883 214.08821269 -675.00097656 211.85284424 C-670.03277333 207.33130912 -664.80544079 203.21632218 -659.50097656 199.10284424 C-656.45264389 196.73764743 -653.44777704 194.32363111 -650.45141602 191.89312744 C-641.13784196 184.35333023 -631.52262996 177.24799321 -621.81347656 170.22784424 C-621.13124023 169.73348877 -620.44900391 169.2391333 -619.74609375 168.72979736 C-550.28562875 118.56963987 -473.92525561 78.72399778 -172.08068848 0.44787598 C-169.8676021 0.23309709 -167.65649651 0.00380261 -165.4453125 -0.22967529 C-111.38467946 -5.85095436 -54.04441298 -5.7126159 0 0 Z " fill="#3D3D3D" transform="translate(998.8134765625,7.77215576171875)"/>
<path d="M0 0 C0.80872559 0.2381543 1.61745117 0.47630859 2.45068359 0.72167969 C30.09427877 8.9007696 56.72907389 20.21226412 83 32 C83.9512677 32.42569275 83.9512677 32.42569275 84.92175293 32.85998535 C101.53026761 40.30005556 117.71598323 48.18323912 133.39746094 57.46044922 C135.89466914 58.93769077 138.40295624 60.39420331 140.9140625 61.84765625 C148.43191649 66.24665056 155.75929393 70.78309142 162.86328125 75.82421875 C164.06699666 76.66697434 165.27109936 77.50917702 166.47558594 78.35083008 C168.82790485 79.99464934 171.14476811 81.67676717 173.45019531 83.38549805 C180.19720882 88.27932306 180.19720882 88.27932306 188.18359375 88.8203125 C190.13692111 88.26206831 192.07468189 87.64828585 194 87 C196.76080967 86.19479569 199.53376872 85.43364399 202.3046875 84.6640625 C203.06602493 84.44675476 203.82736237 84.22944702 204.61177063 84.0055542 C214.333916 81.26210352 224.22389254 79.34808984 234.125 77.375 C236.02745901 76.99015266 237.92980327 76.60473765 239.83203125 76.21875 C275.0206436 69.10047052 310.22395722 63.98945459 346 61 C346.72868286 60.93834656 347.45736572 60.87669312 348.20812988 60.81317139 C395.04836152 56.90555034 443.25271601 57.31226976 490 62 C491.81129395 62.17619873 491.81129395 62.17619873 493.65917969 62.35595703 C499.97320853 62.98552711 506.26600248 63.72566765 512.55712891 64.55224609 C515.03777677 64.87486049 517.51837666 65.18823429 520.00146484 65.49072266 C549.44796727 69.08220725 578.68159516 73.87835891 607.48828125 81.03125 C608.52181732 81.28780365 609.55535339 81.5443573 610.62020874 81.8086853 C615.65354695 83.06572019 620.67834266 84.34957169 625.6953125 85.67041016 C626.6162822 85.90699341 627.53725189 86.14357666 628.48612976 86.3873291 C630.20905361 86.8299742 631.92892921 87.28473053 633.64485168 87.75378418 C638.11426561 88.88972707 640.82656955 89.42231207 645 87 C645.7542627 86.56381348 646.50852539 86.12762695 647.28564453 85.67822266 C648.06020996 85.1785498 648.83477539 84.67887695 649.6328125 84.1640625 C650.51114746 83.60074219 651.38948242 83.03742188 652.29443359 82.45703125 C653.69556396 81.55017578 653.69556396 81.55017578 655.125 80.625 C657.11968867 79.3461935 659.11448204 78.0675503 661.109375 76.7890625 C663.07308998 75.52631115 665.03664037 74.2633038 667 73 C694.16080928 55.53341233 721.93204043 39.77689359 751.4375 26.625 C752.19164185 26.2879303 752.94578369 25.9508606 753.72277832 25.60357666 C762.24344666 21.80729677 770.80142031 18.24258734 779.56004333 15.03094482 C783.762578 13.48590748 787.84146554 11.78411266 791.91015625 9.92089844 C807.88545171 2.88131731 824.97393888 -1.40652307 842 -5 C842.89928223 -5.19650146 843.79856445 -5.39300293 844.72509766 -5.59545898 C856.04759855 -7.89409633 867.50779966 -7.42030782 879 -7 C879.77956055 -6.97969727 880.55912109 -6.95939453 881.36230469 -6.93847656 C885.43402265 -6.76196273 888.59089061 -6.29350383 892 -4 C894.64545838 0.00167438 896.01418428 4.1369687 897.31982422 8.70019531 C898.02110033 11.07134426 898.82326582 13.38439163 899.66015625 15.7109375 C904.36355913 28.92420605 907.88899626 42.41737289 911.25390625 56.02392578 C911.87020917 58.48228068 912.51568619 60.9275472 913.1875 63.37109375 C915.66955303 72.84361646 916.96968019 82.42323506 918.1875 92.125 C918.2724472 92.79864594 918.35739441 93.47229187 918.44491577 94.16635132 C924.23337477 140.6817414 921.23961537 187.87265677 903.65283203 231.67236328 C902.23341962 235.2961195 902.23341962 235.2961195 902.515625 239.08203125 C904.66156215 241.85480794 906.92388044 244.50409915 909.25 247.125 C938.42972154 280.7025796 961.18048967 319.01736783 976 361 C976.24298828 361.67675781 976.48597656 362.35351562 976.73632812 363.05078125 C980.47841122 373.52008496 983.34633152 384.21235083 986 395 C986.35795654 396.41236938 986.35795654 396.41236938 986.72314453 397.85327148 C988.79309716 406.33556293 990.13491247 414.8407762 991.30761719 423.48266602 C991.62333984 425.80031317 991.95166029 428.1159296 992.28125 430.43164062 C1001.72040266 497.92981798 995.58835714 572.2959122 978 638 C977.70061523 639.16047852 977.40123047 640.32095703 977.09277344 641.51660156 C974.54135204 651.32516865 971.61846172 660.98350821 968.5 670.625 C968.24255005 671.42248657 967.9851001 672.21997314 967.71984863 673.04162598 C962.62515572 688.73771236 956.67462867 703.90411086 950 719 C949.63986816 719.82790039 949.27973633 720.65580078 948.90869141 721.50878906 C941.36676116 738.76568461 932.00813583 755.7121939 921 771 C920.30777344 771.96421875 919.61554688 772.9284375 918.90234375 773.921875 C904.55598822 793.45518447 887.76516747 812.7663243 868.72265625 827.8359375 C865.87933895 830.09590563 863.13253964 832.4488946 860.375 834.8125 C842.21070867 849.93380438 821.73037321 861.79126102 801 873 C799.88987549 873.60610107 798.77975098 874.21220215 797.63598633 874.83666992 C788.92954545 879.56226506 780.1014526 883.88706842 771.0625 887.9375 C770.39668915 888.23714661 769.7308783 888.53679321 769.04489136 888.84552002 C757.47650105 894.03914056 745.79640741 898.79315715 733.83007812 903.00292969 C731.96336777 903.66059403 730.09996076 904.3277213 728.24023438 905.00488281 C688.97239681 919.29548139 646.76303117 926.67194947 605.4375 932 C604.21163177 932.15934021 604.21163177 932.15934021 602.96099854 932.32189941 C594.61699083 933.39180166 586.43074162 934.26951422 578 934 C578 934.66 578 935.32 578 936 C578.83144531 936.34611328 578.83144531 936.34611328 579.6796875 936.69921875 C604.96136003 950.87227759 621.56265728 990.61792995 629 1017 C630.33493422 1021.97777711 631.49935041 1026.98578161 632.57519531 1032.02539062 C632.96749585 1033.84891176 633.38497242 1035.66696797 633.8046875 1037.484375 C638.61654412 1059.41056701 639.44077832 1081.55850723 639.38476562 1103.92333984 C639.38720883 1106.71555856 639.39419884 1109.50776159 639.40104675 1112.29997253 C639.4134725 1118.25434807 639.41563532 1124.20865099 639.41069031 1130.16303635 C639.40381111 1138.7845917 639.41652171 1147.40603986 639.43419749 1156.02757592 C639.46268742 1170.04084017 639.48031866 1184.0540927 639.48876953 1198.06738281 C639.48927671 1198.90185726 639.48978389 1199.7363317 639.49030644 1200.59609325 C639.49434144 1207.37222435 639.49783872 1214.14835571 639.50130367 1220.92448711 C639.5043641 1226.86892906 639.50763583 1232.81337085 639.51123047 1238.7578125 C639.51198439 1240.01432964 639.51198439 1240.01432964 639.51275355 1241.29623096 C639.5215083 1255.28216801 639.54195579 1269.26806468 639.57071257 1283.25397456 C639.58783057 1291.85281424 639.59450545 1300.45153937 639.58740652 1309.05039383 C639.58321615 1314.93486462 639.58961237 1320.81926313 639.60420525 1326.7037171 C639.61222936 1330.0917324 639.61377066 1333.47941977 639.60538292 1336.86745644 C639.59696925 1340.54920731 639.60702855 1344.23047869 639.62145996 1347.91220093 C639.61456603 1348.96843198 639.60767209 1350.02466304 639.60056925 1351.11290109 C639.74782353 1370.48417042 647.64379735 1382.73465587 661 1396 C658.52230118 1396.79651177 656.04298912 1397.58726215 653.5625 1398.375 C652.87478516 1398.59671875 652.18707031 1398.8184375 651.47851562 1399.046875 C640.10259736 1402.64483985 629.7512773 1403.2940846 617.91281128 1403.28088379 C616.05702345 1403.28605592 614.20123784 1403.29208359 612.34545529 1403.29889059 C607.25667088 1403.31498135 602.16794297 1403.31860699 597.07913613 1403.32008553 C591.58594526 1403.3237954 586.0927834 1403.3388948 580.59960938 1403.35235596 C568.59072058 1403.37949173 556.58184516 1403.39156808 544.57293081 1403.40037727 C537.06709226 1403.40590907 529.56125883 1403.41438521 522.05542374 1403.42338562 C501.25430337 1403.44777019 480.45318624 1403.46843751 459.65205193 1403.4751358 C458.30785165 1403.47557906 456.96365138 1403.47602263 455.61945111 1403.47646651 C454.27210967 1403.47690778 452.92476823 1403.47734874 451.57742679 1403.4777894 C448.87469729 1403.47867447 446.17196778 1403.47956871 443.46923828 1403.48046875 C442.79912282 1403.48068753 442.12900736 1403.48090631 441.43858537 1403.48113173 C419.73661813 1403.4883842 398.03478488 1403.52019209 376.33286891 1403.56684948 C353.35554687 1403.61615794 330.37827857 1403.6434734 307.4008981 1403.64587164 C294.88894447 1403.64770043 282.37716619 1403.65908508 269.86526108 1403.69551086 C259.20549876 1403.72643592 248.54596596 1403.736482 237.88616727 1403.72003466 C232.45536775 1403.71226392 227.02502952 1403.71387065 221.59428787 1403.74214935 C179.81144368 1403.94784465 179.81144368 1403.94784465 161 1397 C162.8407537 1395.07287662 164.39925026 1393.74930797 166.6875 1392.3125 C174.44637406 1387.19781934 179.68144234 1380.6540479 183 1372 C183.24823674 1371.3879603 183.49647348 1370.7759206 183.75223255 1370.14533424 C186.74246801 1361.75120826 186.40015683 1353.30179933 186.34057617 1344.52490234 C186.33972875 1342.76975519 186.34020728 1341.01460698 186.34190369 1339.25946045 C186.34276058 1334.52043989 186.3251846 1329.78164948 186.30418181 1325.04268217 C186.28536378 1320.08060101 186.28366054 1315.11851393 186.28010559 1310.15640259 C186.27080015 1300.77145368 186.24620675 1291.38661024 186.21605712 1282.00170767 C186.1824663 1271.31245582 186.16601534 1260.6231988 186.15097082 1249.93390727 C186.11965582 1227.95587943 186.06692462 1205.97794637 186 1184 C184.3771106 1184.25692627 184.3771106 1184.25692627 182.72143555 1184.51904297 C178.60875188 1185.16879431 174.49507284 1185.81205715 170.38110352 1186.45361328 C168.61911811 1186.72925788 166.85738721 1187.00653554 165.09594727 1187.28564453 C149.07021968 1189.82301323 132.92700535 1192.34020206 116.6640625 1192.265625 C115.70437561 1192.26849014 114.74468872 1192.27135529 113.75592041 1192.27430725 C110.71211334 1192.27860068 107.66876201 1192.26627439 104.625 1192.25 C103.04262543 1192.24484879 103.04262543 1192.24484879 101.42828369 1192.23959351 C77.83719289 1192.1498368 54.71284388 1190.61174853 31.3125 1187.625 C30.52752136 1187.52603424 29.74254272 1187.42706848 28.93377686 1187.32510376 C-19.35963409 1181.14972444 -66.24558192 1160.31695863 -97.30859375 1121.6015625 C-109.20050386 1106.09642486 -116.79183487 1088.31434024 -124.3125 1070.4375 C-144.47553258 1022.52720686 -172.08502169 970.77190873 -218.625 943.9375 C-224.81463085 940.36240807 -230.57560221 936.68659656 -236 932 C-236.81726563 931.32582031 -237.63453125 930.65164063 -238.4765625 929.95703125 C-244.72535356 924.62384855 -249.51359661 918.86856448 -254 912 C-254.54140625 911.19046875 -255.0828125 910.3809375 -255.640625 909.546875 C-257.87288305 905.94091968 -258.95964475 903.59524 -259.25 899.3125 C-257.49804126 894.66980934 -255.14790478 892.59853764 -251 890 C-243.11204521 886.54097203 -235.10570843 886.53076392 -226.625 886.625 C-225.96559418 886.62998505 -225.30618835 886.63497009 -224.62680054 886.6401062 C-190.53632541 886.94130884 -161.47261159 898.93465223 -134 919 C-133.43104004 919.41491699 -132.86208008 919.82983398 -132.27587891 920.25732422 C-124.80938999 925.75416477 -117.72983258 931.61633128 -111 938 C-110.26595947 938.68521729 -110.26595947 938.68521729 -109.51708984 939.38427734 C-95.53449077 952.50466694 -84.84266534 967.63047513 -75 984 C-49.13471629 1026.85018829 -13.60454203 1062.68125348 36 1076 C36.71397949 1076.19207031 37.42795898 1076.38414063 38.16357422 1076.58203125 C61.88121776 1082.49873928 91.0152014 1080.45425179 115 1077 C116.0626709 1076.84934082 117.1253418 1076.69868164 118.22021484 1076.54345703 C140.6900453 1073.23074021 162.19305412 1067.13759582 183 1058 C183.68610352 1057.76579346 184.37220703 1057.53158691 185.07910156 1057.2902832 C187.25033176 1056.10774456 187.25033176 1056.10774456 187.92553711 1053.41235352 C188.1241333 1052.32881592 188.32272949 1051.24527832 188.52734375 1050.12890625 C188.759375 1048.92379395 188.99140625 1047.71868164 189.23046875 1046.47705078 C189.46378906 1045.18524902 189.69710938 1043.89344727 189.9375 1042.5625 C190.44830559 1039.90322452 190.9726549 1037.2466573 191.49609375 1034.58984375 C191.68798782 1033.60371094 191.68798782 1033.60371094 191.88375854 1032.59765625 C194.57481683 1018.84024795 198.32868878 1005.82152082 204 993 C204.28713867 992.33291016 204.57427734 991.66582031 204.87011719 990.97851562 C211.47093503 975.72170638 220.04923644 961.55281971 231 949 C231.44408203 948.49033691 231.88816406 947.98067383 232.34570312 947.45556641 C233.80303139 945.79376106 235.27319566 944.14451173 236.75 942.5 C237.21019531 941.98268311 237.67039062 941.46536621 238.14453125 940.93237305 C240.55362052 938.30072397 242.65407571 936.31335346 246 935 C246 934.34 246 933.68 246 933 C244.69417969 933.01417969 243.38835937 933.02835938 242.04296875 933.04296875 C237.43093604 933.03847622 232.90013005 932.77072962 228.3125 932.3125 C227.47871826 932.2292749 226.64493652 932.1460498 225.78588867 932.06030273 C212.77259892 930.65223095 199.88688574 928.2574905 187 926 C185.6492256 925.76814867 184.29839415 925.53662956 182.94750977 925.30541992 C172.35621126 923.48128378 161.828355 921.4039252 151.3125 919.1875 C150.48538513 919.01358734 149.65827026 918.83967468 148.80609131 918.66049194 C135.7321862 915.90052231 122.80204775 912.8485864 110 909 C108.84540283 908.65775391 108.84540283 908.65775391 107.66748047 908.30859375 C100.60809359 906.20713901 93.76538195 903.93592047 87 901 C84.54563702 900.06958789 82.08918047 899.15324274 79.625 898.25 C66.08689242 893.20968769 52.97326994 887.68536413 40.125 881.07568359 C37.93008163 879.96460704 35.71879089 878.89457083 33.5 877.83203125 C12.66137892 867.78614193 -7.53728984 855.96625676 -26 842 C-26.62680664 841.52723633 -27.25361328 841.05447266 -27.89941406 840.56738281 C-34.7924809 835.33435171 -41.41896881 829.89236529 -47.7890625 824.02734375 C-49.73982911 822.2385666 -51.72980395 820.52156881 -53.75 818.8125 C-62.87708578 810.83324245 -71.4427459 802.12795713 -78.9453125 792.60546875 C-80.27994324 790.91307577 -81.64850018 789.24670417 -83.0546875 787.61328125 C-94.37596212 774.40512753 -103.7381555 759.34053355 -111.91699219 744.01757812 C-113.05282572 741.90158888 -114.21675451 739.80259225 -115.3828125 737.703125 C-126.38294565 717.65159013 -134.50699565 696.3497576 -142.01635742 674.78930664 C-142.99834293 672.00469895 -144.01995068 669.23705543 -145.046875 666.46875 C-152.21002415 646.79501656 -156.23360368 626.23940222 -160.24145508 605.74609375 C-160.7960289 603.00731657 -161.38907026 600.29285098 -162.01635742 597.57104492 C-162.99210249 593.21108663 -163.65905889 588.85631478 -164.21875 584.42578125 C-164.32215698 583.62182419 -164.42556396 582.81786713 -164.53210449 581.98954773 C-164.74940731 580.28636822 -164.96441931 578.58289501 -165.17724609 576.87915039 C-165.49023979 574.39011657 -165.81688984 571.903157 -166.14453125 569.41601562 C-169.48472952 543.38253899 -170.41032019 517.31521215 -170.37776184 491.10119629 C-170.37495184 488.8361784 -170.3751705 486.57117175 -170.37536621 484.30615234 C-170.36102537 461.98821459 -169.68315958 440.05980966 -166 418 C-165.76772705 416.49324707 -165.76772705 416.49324707 -165.53076172 414.95605469 C-160.05053679 379.67141709 -147.6010933 345.51344203 -131 314 C-130.60087402 313.23365234 -130.20174805 312.46730469 -129.79052734 311.67773438 C-123.05535454 298.80915679 -115.48822973 286.78105527 -107 275 C-106.4932373 274.29359375 -105.98647461 273.5871875 -105.46435547 272.859375 C-99.01141185 263.91644826 -92.12323696 255.46153463 -84.8125 247.20703125 C-84.33296875 246.65611816 -83.8534375 246.10520508 -83.359375 245.53759766 C-82.12750302 244.14421948 -80.84741004 242.79384416 -79.5625 241.44921875 C-77.73366755 239.08864243 -77.73366755 239.08864243 -78.08203125 236.1875 C-79.16875909 232.414011 -80.38551649 228.70310827 -81.6875 225 C-90.06165115 200.35665196 -96.01473901 174.88921253 -96.23828125 148.75390625 C-96.24816574 147.79775421 -96.25805023 146.84160217 -96.26823425 145.85647583 C-96.60105452 105.17027603 -93.30792535 65.14774494 -79.30078125 26.5859375 C-78.0602766 23.16616791 -76.97652752 19.73550267 -75.9375 16.25 C-75.29493773 14.16565545 -74.64897948 12.08235542 -74 10 C-73.81083008 9.38012207 -73.62166016 8.76024414 -73.42675781 8.12158203 C-72.82582992 6.17800123 -72.19740096 4.24521687 -71.5625 2.3125 C-71.19253906 1.15363281 -70.82257813 -0.00523437 -70.44140625 -1.19921875 C-69 -4 -69 -4 -66.83984375 -5.33203125 C-44.6422422 -10.55320025 -21.39528287 -6.4471916 0 0 Z " fill="#FEFEFE" transform="translate(505,389)"/>
</svg>
